<svg xmlns="http://www.w3.org/2000/svg" viewBox="0 0 192 192" fill="none">
  <rect width="192" height="192" rx="40" fill="#0ea5e9"/>
  <path d="M96 48C72.6 48 53.5 67.1 53.5 90.5C53.5 113.9 72.6 133 96 133C119.4 133 138.5 113.9 138.5 90.5C138.5 67.1 119.4 48 96 48ZM96 120C79.4 120 66 106.6 66 90C66 73.4 79.4 60 96 60C112.6 60 126 73.4 126 90C126 106.6 112.6 120 96 120Z" fill="white"/>
  <path d="M60 144H132C138.6 144 144 138.6 144 132V120H48V132C48 138.6 53.4 144 60 144Z" fill="white"/>
  <circle cx="75" cy="156" r="6" fill="white"/>
  <circle cx="117" cy="156" r="6" fill="white"/>
</svg>